<svg width="260" height="260" viewBox="0 0 260 260" fill="none" xmlns="http://www.w3.org/2000/svg">
<circle cx="130" cy="130" r="130" fill="url(#paint0_linear_2043_11204)"/>
<circle cx="130" cy="130" r="125" fill="black"/>
<path d="M210.9 178.73L182.648 108.744C182.067 107.304 180.036 107.304 179.455 108.744L161.898 152.23L170.079 172.496L180.269 167.291C180.76 167.04 181.34 167.04 181.831 167.291L208.522 180.924C209.944 181.65 211.5 180.214 210.9 178.73ZM178.252 160.682V149.906H170.578L180.81 131.007L180.974 141.784H188.895L178.252 160.682Z" fill="#63FF7C"/>
<path d="M80.9892 167.291L91.179 172.496L99.3598 152.23L81.8062 108.744C81.2252 107.304 79.1938 107.304 78.6127 108.744L50.3585 178.73C49.7595 180.214 51.3159 181.65 52.7364 180.924L79.4268 167.291C79.9182 167.04 80.4992 167.04 80.9892 167.291ZM69.7358 149.906L79.9675 131.007L80.1318 141.784H88.0527L77.4088 160.682V149.906H69.7358V149.906Z" fill="#63FF7C"/>
<path d="M128.005 85.8637L81.5954 200.827C80.611 203.265 83.1667 205.623 85.5013 204.431L129.345 182.036C130.152 181.625 131.105 181.625 131.911 182.036L175.755 204.431C178.089 205.624 180.645 203.265 179.661 200.827L133.252 85.8637C132.296 83.4959 128.961 83.4959 128.005 85.8637Z" fill="#63FF7C"/>
<path d="M130.082 122.438L113.275 153.483H125.88V171.184L143.367 140.139H130.354L130.082 122.438Z" fill="black"/>
<path d="M207.176 81.3483H163.93C161.806 81.3483 160.078 79.6123 160.078 77.4786V60.3834C160.078 58.2497 161.806 56.5137 163.93 56.5137H207.176C209.3 56.5137 211.028 58.2497 211.028 60.3834V77.4801C211.028 79.6123 209.3 81.3483 207.176 81.3483ZM163.93 57.9286C162.583 57.9286 161.486 59.03 161.486 60.3834V77.4801C161.486 78.8335 162.583 79.9349 163.93 79.9349H207.176C208.524 79.9349 209.62 78.8335 209.62 77.4801V60.3834C209.62 59.03 208.524 57.9286 207.176 57.9286H163.93Z" fill="#63FF7C"/>
<path d="M170.911 76.6712L165.765 60.832H167.964L170.421 68.6346C171.099 70.7728 171.684 72.6994 172.106 74.557H172.152C172.597 72.7234 173.251 70.7263 173.953 68.6586L176.621 60.832H178.797L173.159 76.6712H170.911Z" fill="#63FF7C"/>
<path d="M180.502 61.0214C181.485 60.8563 182.771 60.7168 184.409 60.7168C186.421 60.7168 187.896 61.1865 188.831 62.0327C189.697 62.7845 190.211 63.9369 190.211 65.3458C190.211 66.7788 189.79 67.9072 188.995 68.7294C187.92 69.8803 186.165 70.4685 184.176 70.4685C183.568 70.4685 183.007 70.4445 182.539 70.3275V76.673H180.502V61.0214ZM182.536 68.6589C182.981 68.7759 183.542 68.824 184.221 68.824C186.678 68.824 188.175 67.6251 188.175 65.4404C188.175 63.3487 186.701 62.3388 184.456 62.3388C183.567 62.3388 182.889 62.4094 182.538 62.5039V68.6589H182.536Z" fill="#63FF7C"/>
<path d="M192.948 76.6712V60.832H195.17L200.223 68.8462C201.393 70.7023 202.306 72.3708 203.054 73.9929L203.1 73.9689C202.914 71.8532 202.866 69.9265 202.866 67.4597V60.832H204.784V76.6712H202.725L197.719 68.6346C196.619 66.8715 195.566 65.0619 194.772 63.3469L194.701 63.3709C194.818 65.368 194.866 67.2721 194.866 69.904V76.6727H192.948V76.6712Z" fill="#63FF7C"/>
<defs>
<linearGradient id="paint0_linear_2043_11204" x1="130" y1="0" x2="130" y2="260" gradientUnits="userSpaceOnUse">
<stop stop-color="#63FF7C"/>
<stop offset="0.818909"/>
</linearGradient>
</defs>
</svg>
